<?xml version="1.0" encoding="UTF-8"?>
<svg id="Logo" xmlns="http://www.w3.org/2000/svg" viewBox="0 0 648.17 291.69">
  <defs>
    <style>
      .cls-1 {
        fill: #9c9c9c;
      }

      .cls-2 {
        fill: #009ddf;
      }

      .cls-3 {
        fill: #00688d;
      }
    </style>
  </defs>
  <g>
    <path d="m38.9,147.32c-17.01-11.83-20.06-14.95-20.56-15.59-5.54-7.44,1.52-14.78,1.84-15.11,3.25-3.4,6.54-4.38,14.69-4.38s15.95,6.04,17.32,12.94l.51,2.49c.11.53.43,1,.88,1.3.45.3,1.01.4,1.54.3l11.75-2.42c1.1-.23,1.82-1.31,1.6-2.41l-.49-2.47c-1.42-7.09-5.64-13.67-11.88-18.53-6.2-4.82-13.54-7.37-21.23-7.37-10.78,0-18.95,1.58-26.34,9.43-8.36,8.83-12.58,23.34-3.19,35.85,2.93,4.07,9.56,8.96,24.26,19.06l3.57,2.55c7.2,5.14,16.16,11.55,18.15,13.82,3.57,4.42,3.21,13.01-.71,17.95-4.44,5.17-10.33,7.8-17.53,7.8-3.79,0-7.85-1.41-11.14-3.88-.89-.66-2.14-.5-2.83.35l-7.6,9.43c-.35.43-.5.98-.44,1.52.06.55.34,1.05.78,1.38,6.21,4.83,13.55,7.38,21.23,7.38,12.14,0,22.22-4.6,29.97-13.69,4.34-5.32,6.84-12.33,6.83-19.17.24-7.32-1.91-14.17-6.09-19.33-3.85-4.52-14.06-11.65-24.89-19.21Z"/>
    <path d="m197.67,166.58l-1.25-.9c-2.77-2-10.11-7.3-11.03-8.41-1.72-2.21.19-4.52,1.16-5.48,1.16-1.26,2.01-1.92,7.04-1.92,3.31,0,7.13,2.83,7.71,5.7l.48,2.44c.21,1.1,1.25,1.82,2.37,1.62l11.78-2.08c.54-.1,1.02-.41,1.33-.86.31-.45.43-1.01.32-1.55l-.49-2.52c-1-5.27-4.02-10.09-8.49-13.57-4.38-3.41-9.86-5.36-15.02-5.36-6.29,0-12.93.83-18.98,6.87-5.59,6.06-9.5,16.62-2.1,26.47,2.29,3.05,7.27,6.61,15.91,12.65,10.93,7.42,12.77,9.39,13.04,9.72,1.43,1.74,1.15,5.31-.58,7.36-1.43,1.72-4.07,3.76-8.49,3.76-7.88,0-9.98-4.15-10.53-6.62l-.56-2.5c-.12-.54-.45-1-.91-1.29-.47-.3-1.04-.39-1.56-.26l-11.73,2.77c-1.09.26-1.77,1.34-1.53,2.44l.54,2.44c1.98,8.86,10.05,19.2,26.29,19.2,8.47,0,15.9-3.42,20.88-9.59,3.25-3.76,5.12-8.82,5.11-13.78.26-5.39-1.38-10.57-4.48-14.2-2.53-2.99-7.47-6.58-16.22-12.55Z"/>
    <path d="m259.11,206.72c-2.78-2.22-3.78-3.27-4.06-3.55v-47.31h10.75c1.13,0,2.05-.92,2.05-2.05v-12.07c0-1.13-.92-2.05-2.05-2.05h-10.75v-25.04c0-1.13-.92-2.05-2.05-2.05h-12.07c-1.13,0-2.05.92-2.05,2.05v25.04h-4.75c-1.13,0-2.05.92-2.05,2.05v12.07c0,1.13.92,2.05,2.05,2.05h4.75v47.86c0,7.08,5.17,11.51,9.73,15.41l2,1.72c.37.32.85.5,1.34.5.05,0,.11,0,.16,0,.54-.04,1.05-.3,1.4-.72l7.95-9.34c.36-.42.53-.97.48-1.53s-.33-1.06-.77-1.41l-2.06-1.63Z"/>
    <path d="m346.75,196.12c.3-1.02-.23-2.09-1.22-2.48l-11.47-4.5c-.57-.22-1.21-.18-1.75.12-.54.3-.91.82-1.02,1.42-1.01,5.46-7.41,10.25-13.7,10.25h-3.6c-6.29,0-12.7-4.81-13.72-10.33-.33-1.63-.6-3.64-.81-5.9l47.45-3.83c1.07-.09,1.89-.98,1.89-2.04v-5.69c-.24-6.81-.72-12.09-1.49-16.12-1.22-6.35-5.12-12.39-10.66-16.54-5.61-4.45-12.2-6.79-19.05-6.79h-3.6c-6.75,0-13.52,2.41-19.04,6.78-5.33,4.18-9.21,10.19-10.68,16.59-1.88,10.22-1.87,26.72.03,36.84,1.39,6.27,5.07,12.02,10.73,16.69,5.6,4.21,12.33,6.53,18.96,6.53h3.6c6.71,0,13.29-2.27,19.05-6.6,5.03-3.97,8.52-8.95,10.1-14.39Zm-32.76-46.26h3.6c6.29,0,12.7,4.81,13.72,10.32.32,1.63.59,3.57.8,5.71l-32.87,2.62c.25-3.34.59-6.1,1.04-8.39,1.01-5.46,7.41-10.25,13.71-10.25Z"/>
    <path d="m451.28,140.18c-4.79-4.06-11.28-6.49-17.38-6.49h-1c-4.12,0-8.45,1.08-12.54,3.13-2.11,1.11-4.05,2.47-5.78,4.07-.23-.22-.46-.46-.72-.71-4.78-4.07-11.27-6.49-17.38-6.49h-1c-5.79,0-11.51,1.98-16.61,5.75-6.78,5.35-9.81,10.5-9.81,16.69v59.52c.01,1.13.93,2.05,2.06,2.05h12.07c1.13,0,2.05-.92,2.05-2.05v-56.96c.27-5.76,6.11-8.83,10.23-8.83h1c4.1,0,10.03,3.28,10.03,9.22v56.57c0,1.13.92,2.05,2.05,2.05h12.07c1.13,0,2.05-.92,2.05-2.05v-56.57c0-1.78.36-3.02,1.32-4.4,1.76-2.84,5.42-4.83,8.9-4.83h1c4.1,0,10.03,3.28,10.03,9.22v32.93c0,1.13.92,2.05,2.05,2.05h12.08c1.13,0,2.05-.92,2.05-2.05v-32.93c0-7.24-3.12-13.95-8.82-18.9Z"/>
    <path class="cls-2" d="m414.4,60.11c.4.4.92.6,1.45.6s1.05-.2,1.45-.6l8.7-8.69c.39-.39.6-.91.6-1.45s-.21-1.07-.6-1.45l-8.7-8.7c-.8-.8-2.1-.8-2.9,0l-8.7,8.7c-.38.38-.6.91-.6,1.45s.21,1.07.6,1.45l8.7,8.69Z"/>
    <path class="cls-2" d="m443.94,89.54c.39.39.91.6,1.45.6.54,0,1.07-.22,1.45-.6l8.69-8.7c.8-.8.8-2.1,0-2.9l-8.69-8.69c-.8-.8-2.1-.8-2.9,0l-8.7,8.69c-.39.39-.6.91-.6,1.45s.21,1.07.6,1.45l8.7,8.7Z"/>
    <path class="cls-3" d="m488.46,75.02c.4.4.93.6,1.45.6s1.05-.2,1.45-.6l8.7-8.7c.38-.38.6-.91.6-1.45s-.21-1.07-.6-1.45l-8.7-8.69c-.8-.8-2.1-.8-2.9,0l-8.7,8.69c-.39.39-.6.91-.6,1.45s.21,1.07.6,1.45l8.7,8.7Z"/>
    <path class="cls-3" d="m399.77,104.56c.4.4.93.6,1.45.6s1.05-.2,1.45-.6l8.7-8.7c.38-.38.6-.91.6-1.45s-.21-1.07-.6-1.45l-8.7-8.69c-.79-.8-2.1-.8-2.9,0l-8.7,8.69c-.39.39-.6.91-.6,1.45s.21,1.07.6,1.45l8.7,8.7Z"/>
    <path class="cls-3" d="m517.92,45.58c.4.4.93.6,1.45.6s1.05-.2,1.45-.6l8.7-8.7c.38-.38.6-.91.6-1.45s-.21-1.07-.6-1.45l-8.7-8.69c-.8-.8-2.1-.8-2.9,0l-8.7,8.69c-.39.39-.6.91-.6,1.45s.21,1.07.6,1.45l8.7,8.7Z"/>
    <path class="cls-3" d="m579.76,25.27c-.8-.8-2.1-.8-2.9,0l-8.7,8.69c-.39.39-.6.91-.6,1.45s.21,1.07.6,1.45l8.7,8.7c.39.39.91.6,1.45.6.54,0,1.07-.22,1.45-.6l8.69-8.7c.8-.8.8-2.1,0-2.9l-8.69-8.69Z"/>
    <path class="cls-3" d="m609.36,54.75c-.8-.8-2.1-.8-2.9,0l-8.7,8.69c-.39.39-.6.91-.6,1.45s.21,1.07.6,1.45l8.7,8.7c.39.39.91.6,1.45.6.54,0,1.07-.22,1.45-.6l8.69-8.7c.8-.8.8-2.1,0-2.9l-8.69-8.69Z"/>
    <path class="cls-2" d="m647.56,33.98l-8.7-8.69c-.8-.8-2.1-.8-2.9,0l-8.7,8.69c-.39.39-.6.91-.6,1.45s.21,1.07.6,1.45l8.7,8.7c.4.4.93.6,1.45.6s1.05-.2,1.45-.6l8.7-8.7c.38-.38.6-.91.6-1.45s-.21-1.07-.6-1.45Z"/>
    <path class="cls-2" d="m547.43,75.04c.4.4.93.6,1.45.6s1.05-.2,1.45-.6l8.7-8.7c.38-.38.6-.91.6-1.45s-.21-1.07-.6-1.45l-8.7-8.69c-.79-.8-2.1-.8-2.9,0l-8.7,8.69c-.39.39-.6.91-.6,1.45s.21,1.07.6,1.45l8.7,8.7Z"/>
    <path class="cls-2" d="m331.61,94.46c0,.54.22,1.07.6,1.45l8.7,8.7c.4.4.92.6,1.45.6s1.05-.2,1.45-.6l8.7-8.7c.39-.38.6-.91.6-1.45s-.22-1.07-.6-1.45l-8.7-8.69c-.8-.8-2.1-.8-2.9,0l-8.7,8.69c-.38.39-.6.91-.6,1.45Z"/>
    <path class="cls-2" d="m283.74,100.19l5.11-5.12c.16-.16.25-.38.25-.62s-.09-.45-.25-.62l-5.11-5.11c-.34-.34-.89-.34-1.23,0l-5.11,5.11c-.16.16-.26.38-.26.62s.09.45.26.62l5.11,5.12c.16.16.38.25.62.25s.45-.09.62-.25Z"/>
    <path class="cls-2" d="m548.27,11.71c.16.16.38.25.62.25s.45-.09.62-.25l5.11-5.12c.16-.16.25-.38.25-.62s-.09-.45-.25-.62l-5.11-5.11c-.34-.34-.89-.34-1.23,0l-5.11,5.11c-.16.16-.26.38-.26.62s.09.45.26.62l5.11,5.12Z"/>
    <path class="cls-3" d="m326.94,84.87c.16.16.38.25.62.25s.45-.09.62-.25l5.11-5.12c.16-.16.26-.38.26-.62s-.09-.45-.26-.62l-5.11-5.11c-.34-.34-.89-.34-1.23,0l-5.11,5.11c-.16.16-.25.38-.25.62s.09.45.25.62l5.11,5.12Z"/>
    <path class="cls-3" d="m599.42,20.09c0-.23-.09-.45-.25-.62l-5.11-5.11c-.34-.34-.89-.34-1.23,0l-5.11,5.11c-.16.16-.25.38-.25.62s.09.45.25.62l5.11,5.12c.16.16.38.26.62.26s.45-.09.62-.26l5.11-5.12c.16-.16.25-.38.25-.62Z"/>
    <path class="cls-3" d="m371.32,70.6c.16.16.38.25.62.25s.45-.09.62-.25l5.11-5.12c.16-.16.25-.38.25-.62s-.09-.45-.25-.62l-5.11-5.11c-.34-.34-.89-.34-1.23,0l-5.11,5.11c-.16.16-.25.38-.25.62s.09.45.25.62l5.11,5.12Z"/>
    <path class="cls-2" d="m550.07,193.03l8.9-8.9c.8-.8.8-2.1,0-2.9l-27.8-27.8,27.8-27.8c.8-.8.8-2.1,0-2.9l-8.9-8.91c-.38-.38-.91-.6-1.45-.6s-1.06.22-1.45.6l-27.8,27.8-27.79-27.8c-.8-.8-2.1-.8-2.9,0l-8.91,8.9c-.39.39-.6.91-.6,1.45s.21,1.07.6,1.45l27.8,27.8-27.8,27.8c-.38.38-.6.91-.6,1.45s.21,1.07.6,1.45l8.91,8.9c.4.4.92.6,1.45.6s1.05-.2,1.45-.6l27.8-27.8,27.8,27.8c.4.4.93.6,1.45.6s1.05-.2,1.45-.6Z"/>
  </g>
  <g>
    <path class="cls-1" d="m167.69,257.33v-17.19h3.77v17.19h-3.77Z"/>
    <path class="cls-1" d="m189.78,257.21c-.94.15-2.63.26-3.6.26l-5.51-10.02c-.23-.43-.61-1.35-.79-1.99l-.25.03c.08.76.13,1.5.13,2.07v9.79h-3.39v-17.01c1.15-.15,2.88-.25,3.93-.25l5.15,9.38c.28.48.61,1.3.82,1.99l.25-.03c-.08-.56-.13-1.56-.13-2.14v-9.13h3.39v17.06Z"/>
    <path class="cls-1" d="m198.52,257.59c-1.45,0-3.26-.18-4.69-.79.15-1.17.46-2.32.74-3.24,1.25.54,3.03.87,4.41.87s2.01-.66,2.01-1.81c0-2.86-7.09-2.32-7.09-7.57,0-3.37,2.83-5.15,6.6-5.15,1.1,0,2.4.1,3.65.43-.05.97-.2,2.17-.43,3.21-1.17-.28-2.86-.48-3.95-.48-1.35,0-1.96.64-1.96,1.76,0,2.63,7.06,2.45,7.06,7.45,0,3.6-2.65,5.33-6.35,5.33Z"/>
    <path class="cls-1" d="m218.62,243.46h-3.67v13.87h-3.77v-13.87h-3.82v-3.32h11.55c0,1.07-.13,2.32-.28,3.32Z"/>
    <path class="cls-1" d="m222.21,257.33v-17.19h3.77v17.19h-3.77Z"/>
    <path class="cls-1" d="m240.57,243.46h-3.67v13.87h-3.77v-13.87h-3.82v-3.32h11.55c0,1.07-.13,2.32-.28,3.32Z"/>
    <path class="cls-1" d="m250.72,257.59c-4.1,0-6.63-1.81-6.63-7.37v-10.07h3.77v10.61c0,2.63.69,3.37,2.91,3.37s3.03-.82,3.03-3.37v-10.61h3.57v10.07c0,4.72-2.01,7.37-6.65,7.37Z"/>
    <path class="cls-1" d="m271.88,243.46h-3.67v13.87h-3.77v-13.87h-3.82v-3.32h11.55c0,1.07-.13,2.32-.28,3.32Z"/>
    <path class="cls-1" d="m289.17,257.56c-1.89,0-4.49-.13-5.94-.36v-16.88c1.45-.2,4.39-.36,5.92-.36,4.18,0,7.83,2.45,7.83,8.41s-3.21,9.18-7.8,9.18Zm-.1-14.25c-.59,0-1.5.03-2.07.08v10.76c.51.05,1.45.08,2.04.08,2.6,0,3.87-1.53,3.87-5.48s-1.66-5.43-3.85-5.43Z"/>
    <path class="cls-1" d="m311.15,257.33h-10.2v-17.19h10.05c0,.97-.1,2.32-.26,3.32h-6.02v3.47h4.38v3.26h-4.38v3.83h6.71c0,1.02-.13,2.19-.28,3.31Z"/>
    <path class="cls-1" d="m331.81,257.51l-1.17-2.6c-.87-1.86-1.73-3.37-2.37-4.11h-1.56v6.53h-3.67v-17.01c2.24-.25,3.95-.36,5.69-.36,3.16,0,5.79,1.48,5.79,5.12,0,2.29-1.45,3.95-3.11,4.56.97.92,1.81,2.14,2.53,3.62l1.84,3.85c-1.25.25-2.7.38-3.95.38Zm-3.34-14.51c-.66,0-1.22.03-1.76.08v4.9h1.45c1.46,0,2.55-.74,2.55-2.6,0-1.56-.79-2.37-2.24-2.37Z"/>
    <path class="cls-1" d="m349.2,257.33h-10.2v-17.19h10.05c0,.97-.1,2.32-.26,3.32h-6.02v3.47h4.38v3.26h-4.38v3.83h6.71c0,1.02-.13,2.19-.28,3.31Z"/>
    <path class="cls-1" d="m360.09,257.59c-5,0-7.67-3.06-7.67-8.87,0-6.14,3.29-8.82,7.42-8.82,1.61,0,3.72.33,4.69.82-.05.97-.28,2.27-.51,3.37-1.17-.56-2.65-.87-3.98-.87-1.99,0-3.57,1.15-3.57,5.48s1.22,5.58,3.72,5.58c1.45,0,3.16-.54,4.16-1.2.25,1.02.46,2.17.54,3.37-1.28.76-3.29,1.15-4.79,1.15Z"/>
    <path class="cls-1" d="m378.19,257.33v-7.19h-5.81v7.19h-3.77v-17.19h3.77v6.6h5.81v-6.6h3.77v17.19h-3.77Z"/>
    <path class="cls-1" d="m397.06,257.33h-10.2v-17.19h10.05c0,.97-.1,2.32-.26,3.32h-6.02v3.47h4.38v3.26h-4.38v3.83h6.7c0,1.02-.13,2.19-.28,3.31Z"/>
    <path class="cls-1" d="m409.97,257.51l-1.17-2.6c-.87-1.86-1.73-3.37-2.37-4.11h-1.56v6.53h-3.67v-17.01c2.24-.25,3.95-.36,5.69-.36,3.16,0,5.79,1.48,5.79,5.12,0,2.29-1.45,3.95-3.11,4.56.97.92,1.81,2.14,2.53,3.62l1.84,3.85c-1.25.25-2.7.38-3.95.38Zm-3.34-14.51c-.66,0-1.22.03-1.76.08v4.9h1.45c1.46,0,2.55-.74,2.55-2.6,0-1.56-.79-2.37-2.24-2.37Z"/>
    <path class="cls-1" d="m423.92,257.59c-5,0-7.68-3.06-7.68-8.87,0-6.14,3.29-8.82,7.42-8.82,1.61,0,3.72.33,4.69.82-.05.97-.28,2.27-.51,3.37-1.17-.56-2.65-.87-3.98-.87-1.99,0-3.57,1.15-3.57,5.48s1.22,5.58,3.72,5.58c1.45,0,3.16-.54,4.16-1.2.26,1.02.46,2.17.54,3.37-1.28.76-3.29,1.15-4.79,1.15Z"/>
    <path class="cls-1" d="m442.02,257.33v-7.19h-5.81v7.19h-3.77v-17.19h3.77v6.6h5.81v-6.6h3.77v17.19h-3.77Z"/>
    <path class="cls-1" d="m460.89,257.33h-10.2v-17.19h10.05c0,.97-.1,2.32-.26,3.32h-6.02v3.47h4.38v3.26h-4.38v3.83h6.71c0,1.02-.13,2.19-.28,3.31Z"/>
    <path class="cls-1" d="m177.38,272.46h-3.67v13.87h-3.77v-13.87h-3.82v-3.32h11.55c0,1.07-.13,2.32-.28,3.32Z"/>
    <path class="cls-1" d="m191.18,286.33h-10.2v-17.19h10.05c0,.97-.1,2.32-.25,3.32h-6.02v3.47h4.39v3.26h-4.39v3.83h6.71c0,1.02-.13,2.19-.28,3.31Z"/>
    <path class="cls-1" d="m202.07,286.59c-5,0-7.67-3.06-7.67-8.87,0-6.14,3.29-8.82,7.42-8.82,1.61,0,3.72.33,4.69.82-.05.97-.28,2.27-.51,3.37-1.17-.56-2.65-.87-3.98-.87-1.99,0-3.57,1.15-3.57,5.48s1.22,5.58,3.72,5.58c1.45,0,3.16-.54,4.16-1.2.26,1.02.46,2.17.54,3.37-1.27.76-3.29,1.15-4.79,1.15Z"/>
    <path class="cls-1" d="m220.17,286.33v-7.19h-5.81v7.19h-3.77v-17.19h3.77v6.6h5.81v-6.6h3.77v17.19h-3.77Z"/>
    <path class="cls-1" d="m242.25,286.21c-.94.15-2.63.26-3.6.26l-5.51-10.02c-.23-.43-.61-1.35-.79-1.99l-.25.03c.08.76.13,1.5.13,2.07v9.79h-3.39v-17.01c1.15-.15,2.88-.25,3.93-.25l5.15,9.38c.28.48.61,1.3.82,1.99l.25-.03c-.08-.56-.13-1.56-.13-2.14v-9.13h3.39v17.06Z"/>
    <path class="cls-1" d="m253.63,286.59c-4.44,0-7.39-2.45-7.39-8.75s3.01-8.95,7.39-8.95,7.37,2.58,7.37,8.85-3.06,8.85-7.37,8.85Zm-.03-14.48c-2.22,0-3.31,1.25-3.31,5.63s1.02,5.63,3.34,5.63,3.34-1.33,3.34-5.63-1.2-5.63-3.37-5.63Z"/>
    <path class="cls-1" d="m274.66,286.33h-9.69v-17.19h3.77v13.82h6.17c0,1.15-.13,2.29-.25,3.37Z"/>
    <path class="cls-1" d="m284.1,286.59c-4.44,0-7.39-2.45-7.39-8.75s3.01-8.95,7.39-8.95,7.37,2.58,7.37,8.85-3.06,8.85-7.37,8.85Zm-.03-14.48c-2.22,0-3.31,1.25-3.31,5.63s1.02,5.63,3.34,5.63,3.34-1.33,3.34-5.63-1.2-5.63-3.37-5.63Z"/>
    <path class="cls-1" d="m302,286.59c-4.87,0-7.47-3.19-7.47-8.87,0-6.2,3.31-8.82,7.73-8.82,1.73,0,3.87.31,5.15.84-.05.97-.28,2.29-.54,3.39-1.1-.56-2.86-.92-4.36-.92-2.4,0-3.93,1.05-3.93,5.64,0,3.8,1.25,5.43,3.44,5.43.66,0,1.58-.08,1.99-.2v-2.86h-2.14c-.18-1-.28-2.17-.28-3.24h6.12v8.44c-1.2.61-3.54,1.17-5.71,1.17Z"/>
    <path class="cls-1" d="m312.25,286.33v-17.19h3.78v17.19h-3.78Z"/>
    <path class="cls-1" d="m329.23,286.28c0,1.43.82,2.14,2.02,2.14.74,0,1.91-.2,2.45-.43.2.92.36,2.14.41,3.21-.99.33-2.45.48-3.29.48-2.7,0-5-1.76-5.02-5.28-3.7-.61-5.79-3.26-5.79-8.57,0-5.97,2.98-8.95,7.39-8.95s7.37,2.63,7.37,8.85c0,5.28-2.17,7.9-5.53,8.54Zm-1.86-14.18c-2.24,0-3.31,1.25-3.31,5.66,0,4.13.99,5.61,3.34,5.61s3.34-1.35,3.34-5.61-1.2-5.66-3.37-5.66Z"/>
    <path class="cls-1" d="m345.3,286.59c-4.11,0-6.63-1.81-6.63-7.37v-10.07h3.77v10.61c0,2.63.69,3.37,2.91,3.37s3.04-.82,3.04-3.37v-10.61h3.57v10.07c0,4.72-2.01,7.37-6.65,7.37Z"/>
    <path class="cls-1" d="m366.97,286.33h-10.2v-17.19h10.05c0,.97-.1,2.32-.26,3.32h-6.02v3.47h4.38v3.26h-4.38v3.83h6.71c0,1.02-.13,2.19-.28,3.31Z"/>
  </g>
  <path d="m146.77,133.69h-12.07c-.54,0-1.07.22-1.45.6-.38.38-.6.91-.6,1.45v56.09c-.42,7.17-8.03,10.5-13.03,10.5h-1.2c-5.38,0-12.83-3.83-12.83-11.02v-55.56c0-1.13-.92-2.05-2.05-2.05h-12.07c-1.13,0-2.05.92-2.05,2.05v55.56c0,8.05,3.44,15.1,9.97,20.42,5.59,4.37,12.35,6.78,19.03,6.78h1.2c4.35,0,8.87-1.05,13.03-2.99v68.43c0,1.13.91,2.05,2.05,2.05h12.07c1.13,0,2.06-1.02,2.06-2.15v-148.1c0-1.13-.92-2.05-2.05-2.05Z"/>
</svg>